# xmcd
#
# Track frame offsets:
#	150
#	12162
#	25382
#	41210
#	56147
#	70120
#	82487
#	93135
#	107912
#	123027
#
# Disc length: 1844 seconds
#
# Revision: 3
# Processed by: cddbd v1.5.1PL0 Copyright (c) Steve Scherf et al.
# Submitted via: audiograbber 1.83.01
#
DISCID=8407320a
DTITLE=Dolly Parton - Super Hits
DYEAR=1996
DGENRE=Country
TTITLE0=Jolene
TTITLE1=Here You Come Again
TTITLE2=Heartbreaker
TTITLE3=You're The Only One
TTITLE4=I Will Always Love You
TTITLE5=9 To 5
TTITLE6=Love Is Like A Butterfly
TTITLE7=But You Know I Love You
TTITLE8=Tennessee Homesick Blues
TTITLE9=Think About Love
EXTD=
EXTT0=
EXTT1=
EXTT2=
EXTT3=
EXTT4=
EXTT5=
EXTT6=
EXTT7=
EXTT8=
EXTT9=
PLAYORDER=
